<?xml version="1.0" encoding="UTF-8"?>
<svg id="Camada_2" data-name="Camada 2" xmlns="http://www.w3.org/2000/svg" viewBox="0 0 785.69 895.9">
  <defs>
    <style>
      .cls-1 {
        fill: #1f1f1f;
        stroke-width: 0px;
      }
    </style>
  </defs>
  <g id="CAMISETAS">
    <g id="LOGO_MONTEBOT" data-name="LOGO MONTEBOT">
      <polygon class="cls-1" points="94.54 711.2 259.96 801.69 259.96 613.37 392.3 685.79 526.17 612.72 526.17 801.14 691.15 710.98 691.15 522.56 785.69 470.85 785.69 95.64 738.48 121.49 738.48 284.94 392.63 474.13 47.33 285.27 47.33 121.82 0 95.97 0 471.29 94.54 522.99 94.54 711.2"/>
      <path class="cls-1" d="M691.15,256.9v-84.46S604.43,0,392.3,0,94.54,170.35,94.54,170.35v86.87l297.76,162.79,298.85-163.12Z"/>
      <polygon class="cls-1" points="479.83 848.36 479.83 691.92 392.3 739.68 305.43 692.14 305.43 848.47 392.3 895.9 479.83 848.36"/>
    </g>
  </g>
</svg>